<mxfile host="app.diagrams.net" modified="2021-06-18T07:44:16.688Z" agent="5.0 (Windows NT 10.0; Win64; x64) AppleWebKit/537.36 (KHTML, like Gecko) Chrome/91.0.4472.106 Safari/537.36" etag="SK2SUgVItMDW6HNRBHxh" version="14.8.0" type="github">
  <diagram id="hW5yfQ29SVQmSgbF9Pae" name="Page-1">
    <mxGraphModel dx="782" dy="524" grid="0" gridSize="10" guides="1" tooltips="1" connect="1" arrows="1" fold="1" page="1" pageScale="1" pageWidth="827" pageHeight="1169" math="0" shadow="0">
      <root>
        <mxCell id="0" />
        <mxCell id="1" parent="0" />
        <mxCell id="Pme5T3-lvOwmPpszffNh-7" style="edgeStyle=orthogonalEdgeStyle;rounded=0;orthogonalLoop=1;jettySize=auto;html=1;exitX=0.75;exitY=0;exitDx=0;exitDy=0;entryX=0.75;entryY=1;entryDx=0;entryDy=0;" edge="1" parent="1" source="Pme5T3-lvOwmPpszffNh-1" target="Pme5T3-lvOwmPpszffNh-5">
          <mxGeometry relative="1" as="geometry" />
        </mxCell>
        <mxCell id="Pme5T3-lvOwmPpszffNh-9" style="edgeStyle=orthogonalEdgeStyle;rounded=0;orthogonalLoop=1;jettySize=auto;html=1;exitX=1;exitY=0.75;exitDx=0;exitDy=0;entryX=0;entryY=0.75;entryDx=0;entryDy=0;" edge="1" parent="1" source="Pme5T3-lvOwmPpszffNh-1" target="Pme5T3-lvOwmPpszffNh-4">
          <mxGeometry relative="1" as="geometry" />
        </mxCell>
        <mxCell id="Pme5T3-lvOwmPpszffNh-11" style="edgeStyle=orthogonalEdgeStyle;rounded=0;orthogonalLoop=1;jettySize=auto;html=1;exitX=0.75;exitY=1;exitDx=0;exitDy=0;entryX=0.75;entryY=0;entryDx=0;entryDy=0;" edge="1" parent="1" source="Pme5T3-lvOwmPpszffNh-1" target="Pme5T3-lvOwmPpszffNh-3">
          <mxGeometry relative="1" as="geometry" />
        </mxCell>
        <mxCell id="Pme5T3-lvOwmPpszffNh-13" style="edgeStyle=orthogonalEdgeStyle;rounded=0;orthogonalLoop=1;jettySize=auto;html=1;exitX=0;exitY=0.75;exitDx=0;exitDy=0;entryX=1;entryY=0.75;entryDx=0;entryDy=0;" edge="1" parent="1" source="Pme5T3-lvOwmPpszffNh-1" target="Pme5T3-lvOwmPpszffNh-2">
          <mxGeometry relative="1" as="geometry" />
        </mxCell>
        <mxCell id="Pme5T3-lvOwmPpszffNh-1" value="Server" style="rounded=0;whiteSpace=wrap;html=1;" vertex="1" parent="1">
          <mxGeometry x="200" y="140" width="90" height="50" as="geometry" />
        </mxCell>
        <mxCell id="Pme5T3-lvOwmPpszffNh-12" style="edgeStyle=orthogonalEdgeStyle;rounded=0;orthogonalLoop=1;jettySize=auto;html=1;exitX=1;exitY=0.25;exitDx=0;exitDy=0;entryX=0;entryY=0.25;entryDx=0;entryDy=0;" edge="1" parent="1" source="Pme5T3-lvOwmPpszffNh-2" target="Pme5T3-lvOwmPpszffNh-1">
          <mxGeometry relative="1" as="geometry" />
        </mxCell>
        <mxCell id="Pme5T3-lvOwmPpszffNh-2" value="Client" style="rounded=0;whiteSpace=wrap;html=1;" vertex="1" parent="1">
          <mxGeometry x="20" y="140" width="90" height="50" as="geometry" />
        </mxCell>
        <mxCell id="Pme5T3-lvOwmPpszffNh-10" style="edgeStyle=orthogonalEdgeStyle;rounded=0;orthogonalLoop=1;jettySize=auto;html=1;exitX=0.25;exitY=0;exitDx=0;exitDy=0;entryX=0.25;entryY=1;entryDx=0;entryDy=0;" edge="1" parent="1" source="Pme5T3-lvOwmPpszffNh-3" target="Pme5T3-lvOwmPpszffNh-1">
          <mxGeometry relative="1" as="geometry" />
        </mxCell>
        <mxCell id="Pme5T3-lvOwmPpszffNh-3" value="Client" style="rounded=0;whiteSpace=wrap;html=1;" vertex="1" parent="1">
          <mxGeometry x="200" y="270" width="90" height="50" as="geometry" />
        </mxCell>
        <mxCell id="Pme5T3-lvOwmPpszffNh-8" style="edgeStyle=orthogonalEdgeStyle;rounded=0;orthogonalLoop=1;jettySize=auto;html=1;exitX=0;exitY=0.25;exitDx=0;exitDy=0;entryX=1;entryY=0.25;entryDx=0;entryDy=0;" edge="1" parent="1" source="Pme5T3-lvOwmPpszffNh-4" target="Pme5T3-lvOwmPpszffNh-1">
          <mxGeometry relative="1" as="geometry" />
        </mxCell>
        <mxCell id="Pme5T3-lvOwmPpszffNh-4" value="Client" style="rounded=0;whiteSpace=wrap;html=1;" vertex="1" parent="1">
          <mxGeometry x="370" y="140" width="90" height="50" as="geometry" />
        </mxCell>
        <mxCell id="Pme5T3-lvOwmPpszffNh-6" style="edgeStyle=orthogonalEdgeStyle;rounded=0;orthogonalLoop=1;jettySize=auto;html=1;exitX=0.25;exitY=1;exitDx=0;exitDy=0;entryX=0.25;entryY=0;entryDx=0;entryDy=0;" edge="1" parent="1" source="Pme5T3-lvOwmPpszffNh-5" target="Pme5T3-lvOwmPpszffNh-1">
          <mxGeometry relative="1" as="geometry">
            <Array as="points">
              <mxPoint x="223" y="100" />
              <mxPoint x="223" y="100" />
            </Array>
          </mxGeometry>
        </mxCell>
        <mxCell id="Pme5T3-lvOwmPpszffNh-5" value="Client" style="rounded=0;whiteSpace=wrap;html=1;" vertex="1" parent="1">
          <mxGeometry x="200" width="90" height="50" as="geometry" />
        </mxCell>
        <mxCell id="Pme5T3-lvOwmPpszffNh-14" value="英文单词" style="text;html=1;strokeColor=none;fillColor=none;align=center;verticalAlign=middle;whiteSpace=wrap;rounded=0;" vertex="1" parent="1">
          <mxGeometry x="200" y="60" width="20" height="60" as="geometry" />
        </mxCell>
        <mxCell id="Pme5T3-lvOwmPpszffNh-16" value="英文单词" style="text;html=1;strokeColor=none;fillColor=none;align=center;verticalAlign=middle;whiteSpace=wrap;rounded=0;" vertex="1" parent="1">
          <mxGeometry x="200" y="200" width="20" height="60" as="geometry" />
        </mxCell>
        <mxCell id="Pme5T3-lvOwmPpszffNh-17" value="中文单词" style="text;html=1;strokeColor=none;fillColor=none;align=center;verticalAlign=middle;whiteSpace=wrap;rounded=0;" vertex="1" parent="1">
          <mxGeometry x="270" y="60" width="20" height="60" as="geometry" />
        </mxCell>
        <mxCell id="Pme5T3-lvOwmPpszffNh-18" value="中文单词" style="text;html=1;strokeColor=none;fillColor=none;align=center;verticalAlign=middle;whiteSpace=wrap;rounded=0;" vertex="1" parent="1">
          <mxGeometry x="270" y="200" width="20" height="60" as="geometry" />
        </mxCell>
        <mxCell id="Pme5T3-lvOwmPpszffNh-19" value="中文单词" style="text;html=1;strokeColor=none;fillColor=none;align=center;verticalAlign=middle;whiteSpace=wrap;rounded=0;" vertex="1" parent="1">
          <mxGeometry x="290" y="180" width="70" height="20" as="geometry" />
        </mxCell>
        <mxCell id="Pme5T3-lvOwmPpszffNh-20" value="中文单词" style="text;html=1;strokeColor=none;fillColor=none;align=center;verticalAlign=middle;whiteSpace=wrap;rounded=0;" vertex="1" parent="1">
          <mxGeometry x="120" y="180" width="70" height="20" as="geometry" />
        </mxCell>
        <mxCell id="Pme5T3-lvOwmPpszffNh-21" value="英文单词" style="text;html=1;strokeColor=none;fillColor=none;align=center;verticalAlign=middle;whiteSpace=wrap;rounded=0;" vertex="1" parent="1">
          <mxGeometry x="300" y="130" width="70" height="20" as="geometry" />
        </mxCell>
        <mxCell id="Pme5T3-lvOwmPpszffNh-22" value="英文单词" style="text;html=1;strokeColor=none;fillColor=none;align=center;verticalAlign=middle;whiteSpace=wrap;rounded=0;" vertex="1" parent="1">
          <mxGeometry x="120" y="130" width="70" height="20" as="geometry" />
        </mxCell>
        <mxCell id="Pme5T3-lvOwmPpszffNh-25" value="" style="group" vertex="1" connectable="0" parent="1">
          <mxGeometry x="30" y="340" width="170" height="50" as="geometry" />
        </mxCell>
        <mxCell id="Pme5T3-lvOwmPpszffNh-23" value="包类型" style="rounded=0;whiteSpace=wrap;html=1;" vertex="1" parent="Pme5T3-lvOwmPpszffNh-25">
          <mxGeometry width="85" height="50" as="geometry" />
        </mxCell>
        <mxCell id="Pme5T3-lvOwmPpszffNh-24" value="数据长度" style="rounded=0;whiteSpace=wrap;html=1;" vertex="1" parent="Pme5T3-lvOwmPpszffNh-25">
          <mxGeometry x="85" width="85" height="50" as="geometry" />
        </mxCell>
        <mxCell id="Pme5T3-lvOwmPpszffNh-26" value="&amp;lt;" style="rounded=0;whiteSpace=wrap;html=1;" vertex="1" parent="1">
          <mxGeometry x="400" y="300" width="40" height="40" as="geometry" />
        </mxCell>
        <mxCell id="Pme5T3-lvOwmPpszffNh-29" value="............" style="rounded=0;whiteSpace=wrap;html=1;" vertex="1" parent="1">
          <mxGeometry x="440" y="300" width="100" height="40" as="geometry" />
        </mxCell>
        <mxCell id="Pme5T3-lvOwmPpszffNh-30" value="&amp;gt;" style="rounded=0;whiteSpace=wrap;html=1;" vertex="1" parent="1">
          <mxGeometry x="540" y="300" width="40" height="40" as="geometry" />
        </mxCell>
        <mxCell id="Pme5T3-lvOwmPpszffNh-31" value="&amp;lt;" style="rounded=0;whiteSpace=wrap;html=1;" vertex="1" parent="1">
          <mxGeometry x="580" y="300" width="40" height="40" as="geometry" />
        </mxCell>
        <mxCell id="Pme5T3-lvOwmPpszffNh-32" value="............" style="rounded=0;whiteSpace=wrap;html=1;" vertex="1" parent="1">
          <mxGeometry x="620" y="300" width="100" height="40" as="geometry" />
        </mxCell>
        <mxCell id="Pme5T3-lvOwmPpszffNh-33" value="&amp;gt;" style="rounded=0;whiteSpace=wrap;html=1;" vertex="1" parent="1">
          <mxGeometry x="720" y="300" width="40" height="40" as="geometry" />
        </mxCell>
        <mxCell id="Pme5T3-lvOwmPpszffNh-34" value="" style="endArrow=none;html=1;" edge="1" parent="1">
          <mxGeometry width="50" height="50" relative="1" as="geometry">
            <mxPoint x="400" y="300" as="sourcePoint" />
            <mxPoint x="400" y="260" as="targetPoint" />
          </mxGeometry>
        </mxCell>
        <mxCell id="Pme5T3-lvOwmPpszffNh-35" value="" style="endArrow=none;html=1;" edge="1" parent="1">
          <mxGeometry width="50" height="50" relative="1" as="geometry">
            <mxPoint x="579" y="300" as="sourcePoint" />
            <mxPoint x="579" y="260" as="targetPoint" />
          </mxGeometry>
        </mxCell>
        <mxCell id="Pme5T3-lvOwmPpszffNh-36" value="" style="endArrow=none;html=1;" edge="1" parent="1">
          <mxGeometry width="50" height="50" relative="1" as="geometry">
            <mxPoint x="759" y="300" as="sourcePoint" />
            <mxPoint x="759" y="260" as="targetPoint" />
          </mxGeometry>
        </mxCell>
        <mxCell id="Pme5T3-lvOwmPpszffNh-41" style="edgeStyle=orthogonalEdgeStyle;rounded=0;orthogonalLoop=1;jettySize=auto;html=1;" edge="1" parent="1" source="Pme5T3-lvOwmPpszffNh-37">
          <mxGeometry relative="1" as="geometry">
            <mxPoint x="580" y="280" as="targetPoint" />
          </mxGeometry>
        </mxCell>
        <mxCell id="Pme5T3-lvOwmPpszffNh-42" style="edgeStyle=orthogonalEdgeStyle;rounded=0;orthogonalLoop=1;jettySize=auto;html=1;exitX=0;exitY=0.5;exitDx=0;exitDy=0;" edge="1" parent="1" source="Pme5T3-lvOwmPpszffNh-37">
          <mxGeometry relative="1" as="geometry">
            <mxPoint x="400" y="280" as="targetPoint" />
          </mxGeometry>
        </mxCell>
        <mxCell id="Pme5T3-lvOwmPpszffNh-37" value="含义1" style="text;html=1;strokeColor=none;fillColor=none;align=center;verticalAlign=middle;whiteSpace=wrap;rounded=0;" vertex="1" parent="1">
          <mxGeometry x="470" y="270" width="40" height="20" as="geometry" />
        </mxCell>
        <mxCell id="Pme5T3-lvOwmPpszffNh-43" style="edgeStyle=orthogonalEdgeStyle;rounded=0;orthogonalLoop=1;jettySize=auto;html=1;" edge="1" parent="1" source="Pme5T3-lvOwmPpszffNh-38">
          <mxGeometry relative="1" as="geometry">
            <mxPoint x="580" y="280" as="targetPoint" />
          </mxGeometry>
        </mxCell>
        <mxCell id="Pme5T3-lvOwmPpszffNh-44" style="edgeStyle=orthogonalEdgeStyle;rounded=0;orthogonalLoop=1;jettySize=auto;html=1;" edge="1" parent="1" source="Pme5T3-lvOwmPpszffNh-38">
          <mxGeometry relative="1" as="geometry">
            <mxPoint x="760" y="280" as="targetPoint" />
          </mxGeometry>
        </mxCell>
        <mxCell id="Pme5T3-lvOwmPpszffNh-38" value="含义2" style="text;html=1;strokeColor=none;fillColor=none;align=center;verticalAlign=middle;whiteSpace=wrap;rounded=0;" vertex="1" parent="1">
          <mxGeometry x="650" y="270" width="40" height="20" as="geometry" />
        </mxCell>
      </root>
    </mxGraphModel>
  </diagram>
</mxfile>
